<?xml version="1.0" encoding="UTF-8" standalone="no"?>
<!DOCTYPE svg PUBLIC "-//W3C//DTD SVG 1.1//EN" "http://www.w3.org/Graphics/SVG/1.1/DTD/svg11.dtd">
<svg width="491.4px" height="203.5px" viewBox="0 0 200 83" version="1.1" xmlns="http://www.w3.org/2000/svg" xmlns:xlink="http://www.w3.org/1999/xlink" xml:space="preserve" xmlns:serif="http://www.serif.com/" style="fill-rule:evenodd;clip-rule:evenodd;stroke-linejoin:round;stroke-miterlimit:1.41421;">
    <g transform="matrix(1,0,0,1,0,-34)">
        <rect x="0" y="34.615" width="200" height="81.634" style="fill:rgb(255,205,35);"/>
    </g>
    <g transform="matrix(1,0,0,1,0,-34)">
        <path d="M44.254,59.045C34.976,59.045 27.456,66.567 27.456,75.844C27.456,85.121 34.976,92.641 44.254,92.641C53.53,92.641 61.051,85.12 61.051,75.844C61.051,66.568 53.531,59.045 44.254,59.045" style="fill-rule:nonzero;"/>
        <path d="M46.525,61.645C46.51,61.649 46.501,61.65 46.497,61.65C46.464,61.706 46.268,62.088 45.904,62.798C45.772,63.056 45.685,63.215 45.645,63.269C45.603,63.272 45.56,63.27 45.517,63.262C45.492,63.241 45.473,63.214 45.458,63.185C45.457,63.182 45.437,63.114 45.398,62.98C44.968,61.5 44.726,60.681 44.671,60.521C44.588,60.279 44.451,60.131 44.263,60.078C44.247,60.045 44.25,59.907 44.261,59.896C44.3,59.854 45.748,59.903 46.011,59.967C46.011,59.969 46.002,60.027 45.986,60.138L45.857,60.137C45.776,60.137 45.495,60.263 45.58,60.524L45.983,61.772C45.988,61.775 45.994,61.776 46,61.775C46.041,61.728 46.199,61.447 46.469,60.935C46.741,60.422 46.897,60.14 46.932,60.089C47.03,60.081 47.097,60.105 47.134,60.16C47.139,60.167 47.228,60.594 47.401,61.439C47.489,61.878 47.545,62.126 47.561,62.184C47.593,62.171 47.619,62.151 47.644,62.126C47.654,62.114 47.827,61.838 48.16,61.294C48.278,61.1 48.342,60.97 48.349,60.902C48.37,60.735 48.229,60.579 48.08,60.529L48.133,60.35C48.214,60.342 49.203,60.653 49.35,60.725C49.355,60.761 49.346,60.801 49.316,60.842L49.291,60.882L49.291,60.902C49.084,60.824 48.879,60.904 48.672,61.146C48.618,61.212 48.396,61.563 48.011,62.199C47.702,62.712 47.505,63.036 47.418,63.175C47.298,63.366 47.227,63.483 47.202,63.528C47.102,63.541 47.031,63.515 46.987,63.451C46.977,63.435 46.898,63.117 46.748,62.492C46.613,61.922 46.539,61.643 46.525,61.645" style="fill:rgb(255,205,35);fill-rule:nonzero;"/>
        <path d="M36.426,63.749L36.533,63.708C36.899,63.571 37.255,63.615 37.602,63.845C37.718,63.923 37.889,64.041 38.118,64.206C38.294,64.333 38.433,64.375 38.534,64.329L38.598,64.301L38.614,64.3C38.666,64.381 38.691,64.435 38.687,64.467C38.665,64.48 38.603,64.511 38.502,64.561C38.237,64.695 37.994,64.826 37.773,64.955C37.705,64.995 37.663,65.012 37.65,65.002L37.559,64.944C36.888,64.526 36.513,64.312 36.436,64.304C36.271,64.289 36.102,64.456 36.23,64.686C36.233,64.691 36.253,64.719 36.292,64.771C36.311,64.797 36.351,64.855 36.414,64.943C36.642,65.266 36.936,65.305 37.064,65.157L37.097,65.161C37.126,65.211 37.146,65.241 37.156,65.251L37.192,65.289C37.195,65.291 37.196,65.298 37.193,65.31C37.156,65.339 37.073,65.399 36.938,65.494C36.619,65.713 36.319,65.951 36.036,66.208L35.958,66.277L35.931,66.277C35.926,66.277 35.823,66.16 35.821,66.154C35.821,66.142 35.822,66.134 35.825,66.132L35.875,66.077C35.959,65.988 35.955,65.846 35.864,65.653C35.829,65.579 35.49,65.138 34.844,64.33C34.663,64.103 34.551,63.972 34.507,63.934C34.35,63.804 34.203,63.772 34.065,63.837L33.989,63.876C33.986,63.877 33.976,63.878 33.963,63.876C33.896,63.81 33.864,63.768 33.868,63.745C34.295,63.338 35.242,62.641 35.281,62.639L35.302,62.639C35.386,62.734 35.422,62.787 35.406,62.798L35.317,62.856C35.23,62.916 35.194,63.018 35.21,63.166C35.224,63.279 35.284,63.405 35.391,63.544C35.397,63.553 35.437,63.61 35.511,63.718C35.535,63.75 35.66,63.92 35.886,64.227L35.926,64.227C35.936,64.21 36.371,62.819 36.375,62.787C36.396,62.612 36.354,62.489 36.243,62.42C36.169,62.373 36.077,62.376 35.969,62.428C35.932,62.446 35.912,62.454 35.907,62.453C35.845,62.37 35.82,62.293 35.82,62.293C35.82,62.293 37.161,61.533 37.225,61.541C37.296,61.647 37.323,61.707 37.302,61.722L37.217,61.782C37.13,61.846 37.039,61.996 36.949,62.235C36.662,62.973 36.487,63.479 36.426,63.749" style="fill:rgb(255,205,35);fill-rule:nonzero;"/>
        <path d="M43.406,62.069C43.399,62.076 43.228,62.094 43.219,62.086L43.133,62.009C42.717,61.639 42.219,61.782 42.113,61.89C42.035,61.968 42.012,62.086 42.04,62.244C42.11,62.648 42.189,63.101 42.974,62.893C43.641,62.716 44.004,62.148 44.103,61.95C44.149,61.955 44.184,61.966 44.206,61.979L44.25,62.004L44.271,62.005L43.968,63.157C43.968,63.159 43.786,63.17 43.423,63.189C42.726,63.225 42.024,63.331 41.315,63.504C41.172,63.541 41.096,63.557 41.088,63.557C41.085,63.551 41.079,63.55 41.075,63.55L41.034,63.407C41.032,63.402 41.034,63.396 41.036,63.393L41.13,63.335C41.234,63.268 41.273,63.12 41.245,62.891C41.242,62.857 41.194,62.654 41.102,62.282C41.087,62.221 41.074,62.154 41.056,62.078C40.915,61.44 40.829,61.067 40.797,60.961C40.709,60.675 40.53,60.546 40.258,60.578C40.25,60.532 40.238,60.491 40.226,60.455L40.21,60.414C41.192,60.153 42.263,59.988 43.427,59.92C43.44,59.941 43.847,60.823 43.847,60.834L43.848,60.862L43.67,60.937L43.663,60.935C43.66,60.935 43.655,60.934 43.65,60.935C43.299,60.514 42.843,60.299 42.275,60.291C41.783,60.281 41.701,60.438 41.759,60.763C41.828,61.155 41.877,61.374 41.9,61.418C42.085,61.751 42.842,61.524 43.052,61.104L43.1,61.01C43.105,60.998 43.135,60.987 43.19,60.973C43.225,60.964 43.261,60.961 43.298,60.966C43.315,61.022 43.422,62.049 43.406,62.069" style="fill:rgb(255,205,35);fill-rule:nonzero;"/>
        <path d="M52.397,65.915C52.396,65.912 52.383,65.889 52.356,65.847C52.259,65.69 52.342,65.442 52.607,65.107C52.676,65.016 52.907,64.715 53.297,64.203C53.413,64.052 53.495,63.942 53.547,63.878L53.61,63.796L53.669,63.711C53.841,63.45 54.2,63.531 54.313,64.155C54.336,64.292 54.334,64.446 54.303,64.615C54.288,64.697 54.282,64.74 54.283,64.743C54.388,64.781 54.463,64.793 54.506,64.778C54.55,64.676 54.632,64.405 54.754,63.962L54.782,63.859C54.789,63.83 54.162,63.309 53.784,63.036C53.197,62.612 52.749,62.319 52.438,62.154L51.615,62.635L51.602,62.637L51.697,62.827C51.704,62.825 51.711,62.823 51.717,62.823L51.729,62.826L51.858,62.775C52.297,62.595 52.839,62.687 52.926,62.835C52.988,62.944 52.941,63.101 52.78,63.309C52.59,63.556 52.315,63.922 51.958,64.405C51.748,64.69 51.616,64.854 51.558,64.895C51.403,65.017 51.194,65.077 51.054,64.953C51.027,64.955 50.992,64.997 50.949,65.08L50.96,65.105L51.053,65.161C51.318,65.319 51.615,65.526 51.942,65.786C52.149,65.948 52.264,66.036 52.285,66.052C52.306,66.036 52.332,66.007 52.363,65.965L52.397,65.915Z" style="fill:rgb(255,205,35);fill-rule:nonzero;"/>
        <path d="M48.71,63.781C48.721,63.781 48.735,63.784 48.752,63.789C48.877,63.829 49.071,63.697 49.174,63.522C49.213,63.454 49.43,62.963 49.826,62.047C49.941,61.788 50.002,61.619 50.01,61.543C50.047,61.292 49.981,61.13 49.81,61.061C49.803,61.029 49.822,60.974 49.863,60.9C49.923,60.893 51.2,61.433 51.483,61.632C51.486,61.659 51.467,61.704 51.421,61.761C51.417,61.761 51.415,61.761 51.411,61.759C51.404,61.759 51.385,61.751 51.355,61.739C51.147,61.652 50.936,61.789 50.82,61.993C50.809,62.013 50.75,62.142 50.643,62.377C50.449,62.813 50.255,63.227 50.066,63.623C49.975,63.812 49.925,63.943 49.919,64.016C49.899,64.22 49.965,64.35 50.117,64.41C50.126,64.453 50.101,64.507 50.043,64.575C50.035,64.576 49.934,64.527 49.736,64.43C49.451,64.288 49.19,64.168 48.949,64.069C48.768,63.995 48.671,63.953 48.647,63.944C48.643,63.903 48.703,63.78 48.71,63.781" style="fill:rgb(255,205,35);fill-rule:nonzero;"/>
        <path d="M38.009,61.428C37.96,61.426 37.918,61.43 37.887,61.438L37.827,61.455C37.824,61.456 37.816,61.456 37.804,61.456C37.802,61.45 37.799,61.448 37.79,61.448L37.723,61.306L37.722,61.287C37.958,61.139 39.379,60.61 39.511,60.615C39.563,60.686 39.584,60.743 39.57,60.784C39.264,60.878 39.175,61.105 39.308,61.463C39.318,61.494 39.343,61.559 39.383,61.66C39.568,62.129 39.727,62.555 39.867,62.937C39.952,63.166 40.033,63.319 40.11,63.393C40.169,63.451 40.228,63.49 40.285,63.513C40.34,63.534 40.375,63.538 40.389,63.535C40.438,63.518 40.474,63.511 40.501,63.511C40.551,63.565 40.573,63.628 40.57,63.694C40.561,63.697 40.425,63.744 40.16,63.835C39.919,63.917 39.647,64.021 39.347,64.145C39.21,64.202 39.135,64.231 39.126,64.23C39.092,64.19 39.043,64.079 39.053,64.068L39.13,64C39.207,63.931 39.232,63.688 39.159,63.511C39.093,63.355 38.911,62.933 38.612,62.243C38.605,62.226 38.55,62.096 38.446,61.852C38.398,61.737 38.343,61.646 38.282,61.583C38.184,61.484 38.092,61.431 38.009,61.428" style="fill:rgb(255,205,35);fill-rule:nonzero;"/>
        <path d="M55.986,75.844C55.986,82.323 50.732,87.575 44.254,87.575C37.775,87.575 32.522,82.323 32.522,75.844C32.522,69.365 37.775,64.112 44.254,64.112C50.732,64.111 55.986,69.364 55.986,75.844" style="fill:rgb(255,205,35);fill-rule:nonzero;"/>
        <path d="M42.937,86.081C43.004,86.09 43.038,86.091 43.044,86.09C43.12,86.061 43.16,85.969 43.16,85.813C43.16,83.76 43.159,78.369 43.172,78.339L43.215,78.244C43.215,78.244 43.5,77.542 43.745,76.993C43.76,77.006 43.773,77.022 43.784,77.04C43.799,77.068 43.845,77.236 43.922,77.551C43.976,77.777 45.982,85.658 45.982,85.658C46.014,85.788 46.031,85.857 46.034,85.865C46.084,85.968 46.174,86.011 46.302,85.999C46.51,85.975 47.615,85.655 47.736,85.549C47.806,85.485 47.828,85.386 47.8,85.253L47.774,85.15C47.508,84.081 45.12,74.68 45.004,74.274L44.975,74.172C44.963,74.124 47.854,67.271 48.102,66.656C48.161,66.512 48.171,66.411 48.135,66.352C48.05,66.222 46.703,65.727 46.529,65.811C46.485,65.832 46.43,65.92 46.369,66.07C46.3,66.242 43.343,73.227 43.275,73.38L43.232,73.475L43.194,73.573C43.191,73.582 43.178,73.588 43.153,73.594C43.154,73.567 43.129,65.791 43.125,65.764C43.102,65.644 43.03,65.586 42.904,65.59C42.62,65.6 41.412,65.914 41.339,65.968C41.261,66.027 41.252,66.14 41.252,66.385C41.252,67.362 41.272,84.801 41.267,84.947C41.253,85.342 41.265,85.567 41.297,85.619C41.396,85.786 42.651,86.057 42.937,86.081" style="fill-rule:nonzero;"/>
        <path d="M48.586,84.917C48.808,84.958 49.946,84.46 50.847,83.768C51.432,83.318 51.577,83.203 51.92,82.772C52.516,82.022 52.816,81.094 52.816,79.987C52.816,77.604 52.811,76.366 52.797,76.272C52.665,75.184 51.802,74.699 51.119,74.676C51.015,74.673 50.823,74.672 50.547,74.672C50.329,74.672 50.175,74.581 50.08,74.401C50.044,74.336 50.027,74.221 50.027,74.059C50.012,71.319 50.009,69.905 50.021,69.818C50.054,69.585 50.318,69.378 50.594,69.617C50.692,69.699 51.259,70.325 51.765,71.18C51.85,71.325 51.943,71.493 52.044,71.687C52.118,71.831 52.188,71.92 52.25,71.955C52.396,72.032 52.64,72.017 52.734,71.765C52.806,71.57 52.938,70.243 52.582,69.673C52.175,69.021 51.038,67.807 50.532,67.559C49.592,67.099 48.443,67.812 48.443,68.85C48.443,72.769 48.446,74.767 48.46,74.843C48.536,75.464 48.837,75.92 49.363,76.211C49.587,76.332 49.875,76.4 50.227,76.404L50.341,76.406C50.435,76.408 50.546,76.409 50.677,76.409C50.942,76.409 51.116,76.525 51.198,76.76C51.225,76.838 51.237,77.452 51.235,78.603C51.235,79.068 51.233,79.414 51.233,79.641C51.233,80.829 51.191,80.958 51.012,81.342C50.806,81.78 50.613,82.024 49.855,82.558C49.418,82.866 49.025,83.087 48.678,83.222C48.51,83.284 48.428,83.353 48.428,83.421L48.428,84.794C48.428,84.829 48.46,84.861 48.52,84.897C48.539,84.903 48.562,84.912 48.586,84.917" style="fill-rule:nonzero;"/>
        <path d="M35.586,81.293L35.586,70.307C35.586,70.291 36.077,69.49 36.66,68.853C37.173,68.291 37.562,67.941 37.824,67.799C38.778,67.284 39.872,68.024 39.966,69.022C39.982,69.188 39.99,71.626 39.99,76.337C39.99,76.73 39.945,77.03 39.854,77.242C39.578,77.881 39.081,78.202 38.354,78.202C37.537,78.202 37.127,78.204 37.127,78.211L37.127,83.073C37.127,83.088 37.11,83.106 37.079,83.131C37.051,83.153 37.019,83.16 36.982,83.151C36.842,83.115 35.586,81.571 35.586,81.293M38.006,69.593C37.754,69.837 37.119,70.616 37.119,70.661L37.119,76.329L37.127,76.52L38.064,76.52C38.23,76.52 38.449,76.307 38.449,76.072L38.443,69.707C38.442,69.604 38.318,69.48 38.201,69.486C38.14,69.491 38.076,69.527 38.006,69.593" style="fill-rule:nonzero;"/>
        <path d="M36.967,87.226L36.939,87.232C36.929,87.234 36.743,87.501 36.382,88.035C36.103,88.446 35.962,88.655 35.957,88.664C35.833,88.923 35.87,89.129 36.064,89.29C36.042,89.339 36.004,89.394 35.958,89.453C35.875,89.461 35.003,88.829 34.995,88.821C34.994,88.809 35.03,88.757 35.1,88.655C35.328,88.727 35.532,88.634 35.713,88.376C36.16,87.739 36.469,87.307 36.643,87.068C36.861,86.768 36.929,86.538 36.838,86.374L36.813,86.327C36.802,86.306 36.834,86.261 36.908,86.194C36.924,86.201 37.069,86.3 37.349,86.484C37.526,86.603 37.645,86.679 37.703,86.713L37.796,86.768C37.806,86.772 37.868,87.016 37.974,87.49C38.181,88.404 38.319,88.923 38.384,89.038C38.413,89 38.536,88.747 38.751,88.276C38.953,87.839 38.946,87.563 38.727,87.45C38.725,87.415 38.746,87.369 38.793,87.311C38.797,87.311 38.967,87.381 39.301,87.521C39.326,87.532 39.425,87.569 39.594,87.635C39.682,87.671 39.747,87.699 39.785,87.722C39.787,87.759 39.776,87.798 39.749,87.838L39.72,87.88L39.72,87.901C39.658,87.845 39.344,87.819 39.16,88.197C39.159,88.201 38.952,88.697 38.542,89.685C38.317,90.23 38.195,90.529 38.177,90.58C38.08,90.552 37.959,90.503 37.819,90.436L36.98,87.231C36.98,87.226 36.975,87.224 36.967,87.226" style="fill:rgb(255,205,35);fill-rule:nonzero;"/>
        <path d="M32.043,84.388C32.05,84.386 32.055,84.385 32.063,84.385C32.101,84.429 32.122,84.475 32.123,84.522C31.819,84.758 31.892,85.629 32.447,85.958C32.868,86.207 33.165,85.886 33.146,85.595C33.135,85.431 33.043,85.231 32.874,84.992C32.685,84.73 32.575,84.561 32.546,84.478C32.309,83.797 32.942,83.119 33.827,83.435C34.462,83.662 34.978,84.373 35.055,84.851C34.98,84.902 34.449,85.185 34.358,85.217C34.316,85.162 34.304,85.13 34.318,85.115L34.394,85.035C34.638,84.793 34.456,84.021 33.915,83.859C33.534,83.747 33.176,84.185 33.652,84.762C33.85,85.004 33.977,85.207 34.028,85.371C34.278,86.156 33.514,86.85 32.523,86.399C32.073,86.195 31.727,85.849 31.49,85.363C31.417,85.217 31.363,85.028 31.325,84.793C31.364,84.761 31.482,84.691 31.68,84.583C31.917,84.455 32.038,84.389 32.043,84.388" style="fill:rgb(255,205,35);fill-rule:nonzero;"/>
        <path d="M41.031,88.104C41.969,88.125 42.658,88.783 42.675,89.02C42.522,89.222 42.379,89.434 42.238,89.658C42.207,89.66 42.176,89.64 42.144,89.592C42.237,88.821 41.562,88.029 40.742,88.673C40.079,89.194 39.884,90.621 40.614,91.027C40.907,91.189 41.563,91.205 41.942,90.498L42.129,90.55C42.127,90.56 42.128,90.566 42.13,90.57L42.136,90.581L42.098,91.316C41.52,91.689 40.105,91.577 39.494,90.456C39.093,89.718 39.359,88.976 39.735,88.602C40.078,88.262 40.587,88.098 41.031,88.104" style="fill:rgb(255,205,35);fill-rule:nonzero;"/>
        <path d="M42.957,88.445L43.044,88.448L43.153,88.459C43.898,88.531 44.628,88.539 45.344,88.483C45.493,88.472 45.57,88.465 45.574,88.465C45.626,88.56 45.879,89.271 45.877,89.304C45.776,89.368 45.717,89.395 45.702,89.379L45.623,89.303C45.407,89.09 45.148,88.953 44.848,88.89C44.722,88.866 44.061,88.779 44.054,89.068L44.033,89.872C44.032,89.901 44.061,89.935 44.118,89.974C44.15,89.994 44.541,90.076 44.91,89.856C44.937,89.839 45.019,89.772 45.156,89.653C45.199,89.616 45.226,89.595 45.238,89.591C45.273,89.576 45.309,89.575 45.345,89.585C45.366,89.883 45.378,90.115 45.384,90.279C45.387,90.405 45.393,90.521 45.398,90.626C45.347,90.65 45.221,90.643 45.218,90.641L45.132,90.556C44.693,90.122 44.124,90.249 44.037,90.408C43.994,90.49 43.996,91.117 44.014,91.176C44.21,91.757 45.416,91.69 46.046,90.671C46.08,90.684 46.12,90.703 46.163,90.738C46.154,90.846 46.08,91.166 45.941,91.692C45.831,91.751 45.39,91.785 44.618,91.794C43.807,91.805 42.762,91.735 42.595,91.68C42.606,91.65 42.616,91.599 42.624,91.525C42.912,91.511 43.071,91.346 43.102,91.032C43.208,89.937 43.257,89.299 43.249,89.112C43.234,88.82 43.13,88.649 42.932,88.6C42.934,88.526 42.942,88.475 42.957,88.445" style="fill:rgb(255,205,35);fill-rule:nonzero;"/>
        <path d="M33.508,87.339C33.518,87.339 33.542,87.349 33.58,87.364C33.775,87.443 33.961,87.381 34.137,87.176C34.336,86.947 34.69,86.551 35.203,85.986C35.381,85.79 35.482,85.648 35.51,85.56C35.534,85.477 35.543,85.408 35.534,85.35C35.533,85.348 35.513,85.304 35.475,85.215C35.506,85.171 35.538,85.134 35.575,85.101L35.596,85.102L35.677,85.176C35.991,85.456 36.212,85.649 36.342,85.748C36.487,85.863 36.573,85.933 36.598,85.954C36.602,85.983 36.572,86.026 36.504,86.084C36.277,86.061 36.065,86.169 35.868,86.409C35.778,86.517 35.478,86.869 34.968,87.456C34.786,87.666 34.679,87.806 34.644,87.878C34.588,87.984 34.568,88.233 34.641,88.307L34.683,88.35C34.701,88.371 34.597,88.482 34.59,88.488C34.516,88.496 33.373,87.525 33.382,87.467C33.381,87.458 33.503,87.336 33.508,87.339" style="fill:rgb(255,205,35);fill-rule:nonzero;"/>
        <path d="M48.339,87.811L48.339,87.831L48.379,87.931C48.43,88.055 49.022,89.642 49.152,90.027C49.246,90.304 49.36,90.48 49.493,90.549C49.579,90.595 49.683,90.603 49.808,90.57C49.812,90.592 49.824,90.623 49.841,90.668L49.862,90.717L49.877,90.759C49.072,91.057 48.517,91.233 48.214,91.289C48.211,91.272 48.2,91.227 48.182,91.163L48.166,91.106L48.187,91.106C48.199,91.106 48.312,91.056 48.373,90.949C48.446,90.82 48.446,90.632 48.37,90.385C48.075,89.412 47.913,88.906 47.886,88.861C47.77,88.682 47.618,88.629 47.427,88.695C47.398,88.635 47.385,88.585 47.39,88.549C47.785,88.272 48.048,88.072 48.176,87.948C48.248,87.874 48.305,87.828 48.339,87.811" style="fill:rgb(255,205,35);fill-rule:nonzero;"/>
        <path d="M51.084,88.104L51.392,88.088C51.606,88.078 52.344,88.276 52.141,89.134C51.863,90.322 49.989,90.83 49.711,89.872C49.634,89.611 49.706,89.335 49.925,89.04C49.969,88.979 49.99,88.945 49.987,88.933C49.953,88.928 49.884,88.915 49.776,88.904C48.778,88.79 48.946,87.725 49.712,87.241C50.386,86.814 51.171,86.92 51.25,87.51C51.278,87.731 51.16,87.954 51.148,87.97L51.084,88.061L51.084,88.104M50.868,89.888C51.461,89.946 51.788,89.188 51.297,88.921C51.221,88.88 51.118,88.864 50.992,88.876C50.789,88.897 50.611,88.906 50.461,88.908C50.153,89.305 50.448,89.846 50.868,89.888M50.192,88.188C50.354,88.188 50.46,88.171 50.511,88.142C50.792,87.338 49.943,87.137 49.691,87.674C49.611,87.841 49.636,87.984 49.768,88.1C49.835,88.163 49.978,88.193 50.192,88.188" style="fill:rgb(255,205,35);fill-rule:nonzero;"/>
        <path d="M52.492,87.41L52.444,87.416C51.938,87.478 51.648,87.307 51.576,86.894C51.441,86.137 52.396,85.222 53.18,85.466C53.401,85.536 53.683,85.753 53.569,86.2C53.561,86.231 53.548,86.271 53.527,86.323C53.487,86.43 53.472,86.479 53.483,86.474L53.613,86.437C54.233,86.249 55.047,86.595 54.676,87.62C54.318,88.611 52.848,89.103 52.407,88.417C52.249,88.178 52.262,87.886 52.44,87.546C52.488,87.456 52.505,87.413 52.492,87.41M53.469,88.156C53.982,88.233 54.344,87.629 54.065,87.294C53.945,87.152 53.778,87.108 53.562,87.166L53.454,87.194L53.345,87.219C53.145,87.266 53.036,87.293 53.022,87.306C52.816,87.449 52.944,88.073 53.469,88.156M52.359,86.694C52.433,86.705 52.589,86.687 52.831,86.632L52.934,86.613C52.953,86.606 52.979,86.588 53.011,86.554C53.037,86.204 52.945,85.986 52.733,85.898C52.537,85.817 52.12,85.937 52.075,86.301C52.057,86.422 52.113,86.646 52.359,86.694" style="fill:rgb(255,205,35);fill-rule:nonzero;"/>
        <path d="M54.424,83.393C54.451,83.388 54.932,83.761 55.859,84.51C55.982,84.609 56.068,84.668 56.121,84.686C56.176,84.622 56.303,84.361 56.196,84.026C56.187,83.997 56.178,83.966 56.169,83.936C56.264,83.886 56.324,83.865 56.348,83.869C56.401,83.958 56.494,84.15 56.629,84.447C56.699,84.602 56.739,84.702 56.749,84.746C56.712,84.758 56.684,84.767 56.671,84.777L56.642,84.802L56.548,84.796C56.515,84.794 56.383,84.86 56.391,84.92C56.559,85.066 56.679,85.147 56.751,85.16C56.881,85.188 56.998,85.141 57.103,85.027C57.159,85.059 57.195,85.089 57.22,85.113C57.221,85.141 57.063,85.353 56.749,85.743C56.477,86.08 56.283,86.298 56.166,86.398C56.142,86.387 56.1,86.348 56.033,86.284C56.033,86.268 56.034,86.261 56.038,86.256L56.096,86.192C56.146,86.143 56.212,85.971 56.138,85.849C56.125,85.827 56.076,85.777 55.992,85.698C55.941,85.648 55.887,85.605 55.828,85.568C55.82,85.57 55.814,85.572 55.807,85.57C55.423,85.986 55.148,86.272 54.989,86.423C54.896,86.509 54.843,86.558 54.834,86.571L54.806,86.569C54.802,86.566 54.674,86.442 54.659,86.423C54.636,86.389 54.617,86.36 54.611,86.336L54.599,86.231C54.596,86.207 54.582,86.102 54.559,85.917C54.361,84.367 54.268,83.585 54.282,83.567L54.33,83.51L54.376,83.451C54.404,83.411 54.421,83.393 54.424,83.393M54.926,85.992L54.953,85.992C55.072,85.882 55.274,85.667 55.557,85.349C55.5,85.27 54.79,84.674 54.788,84.674C54.767,84.671 54.756,84.671 54.752,84.678C54.747,84.685 54.784,85.015 54.862,85.668C54.884,85.841 54.905,85.948 54.926,85.992" style="fill:rgb(255,205,35);fill-rule:nonzero;"/>
        <path d="M31.755,73.804C31.746,73.8 31.346,73.752 30.897,73.95C30.515,74.117 30.345,74.241 30.09,74.658L30.084,74.658C30.126,74.232 30.179,73.95 30.242,73.81C30.284,73.722 30.409,73.634 30.49,73.536C31.253,72.586 30.894,71.89 30.632,71.598C30.557,71.595 29.928,71.807 29.77,72.609C29.72,72.869 29.763,73.237 29.874,73.555C29.93,73.718 29.931,73.809 29.903,73.987C29.846,74.35 29.828,74.55 29.817,74.58L29.811,74.587C29.807,74.586 29.804,74.58 29.804,74.578C29.756,74.127 29.474,73.782 29.176,73.569C28.963,73.419 28.754,73.284 28.529,73.241C28.526,73.247 28.435,73.591 28.776,74.241C28.976,74.62 29.365,74.892 29.78,75.046C29.758,75.488 29.766,75.672 29.767,75.703L29.79,76.414L29.767,76.414C29.413,75.34 28.366,75.174 28.166,75.165C28.158,75.175 28.148,75.764 28.703,76.32C28.977,76.593 29.352,76.787 29.828,76.897C29.859,77.533 29.791,77.932 29.947,78.064C29.954,78.071 30.117,78.056 30.125,78.061C30.146,78.064 30.205,78.058 30.216,78.044C30.226,78.029 30.233,77.963 30.232,77.898L30.219,77.515L30.129,76.896C30.163,76.88 30.235,76.857 30.347,76.829C31.044,76.647 31.659,76.155 31.855,75.472C31.881,75.38 31.887,75.331 31.874,75.326C31.859,75.321 31.45,75.338 31.075,75.508C30.725,75.67 30.447,75.915 30.246,76.245C30.185,76.345 30.147,76.407 30.131,76.427L30.109,76.43C30.106,76.425 30.105,76.424 30.1,76.422C30.078,76.353 30.047,75.31 30.1,75.081C30.856,74.906 31.105,74.826 31.525,74.314C31.61,74.21 31.783,73.818 31.755,73.804" style="fill:rgb(255,205,35);fill-rule:nonzero;"/>
        <path d="M56.751,73.804C56.76,73.8 57.161,73.752 57.608,73.95C57.991,74.117 58.161,74.241 58.415,74.658L58.423,74.658C58.38,74.232 58.327,73.95 58.263,73.81C58.222,73.722 58.096,73.634 58.016,73.536C57.253,72.586 57.612,71.89 57.874,71.598C57.948,71.595 58.579,71.807 58.737,72.609C58.788,72.869 58.744,73.237 58.633,73.555C58.578,73.718 58.575,73.809 58.603,73.987C58.661,74.35 58.678,74.55 58.689,74.58L58.696,74.587C58.701,74.586 58.704,74.58 58.704,74.578C58.751,74.127 59.034,73.782 59.332,73.569C59.544,73.419 59.754,73.284 59.979,73.241C59.982,73.247 60.072,73.591 59.731,74.241C59.531,74.62 59.141,74.892 58.728,75.046C58.75,75.488 58.741,75.672 58.741,75.703L58.719,76.414L58.741,76.414C59.097,75.34 60.142,75.174 60.344,75.165C60.35,75.175 60.361,75.764 59.805,76.32C59.532,76.593 59.158,76.787 58.679,76.897C58.649,77.533 58.717,77.932 58.56,78.064C58.554,78.071 58.39,78.056 58.383,78.061C58.362,78.064 58.302,78.058 58.292,78.044C58.281,78.029 58.275,77.963 58.276,77.898L58.289,77.515L58.377,76.896C58.344,76.88 58.272,76.857 58.163,76.829C57.464,76.647 56.848,76.155 56.651,75.472C56.626,75.38 56.621,75.331 56.632,75.326C56.647,75.321 57.056,75.338 57.432,75.508C57.783,75.67 58.059,75.915 58.261,76.245C58.322,76.345 58.36,76.407 58.377,76.427L58.4,76.43C58.401,76.425 58.402,76.424 58.409,76.422C58.432,76.353 58.462,75.31 58.409,75.081C57.652,74.906 57.406,74.826 56.982,74.314C56.898,74.21 56.723,73.818 56.751,73.804" style="fill:rgb(255,205,35);fill-rule:nonzero;"/>
        <path d="M66.127,64.097L73.365,64.097L73.365,72.957L80.934,64.097L90.554,64.097L82.033,72.921L90.944,87.545L82.03,87.545L77.125,77.945L73.365,81.891L73.365,87.545L66.127,87.545L66.127,64.097Z" style="fill-rule:nonzero;"/>
        <path d="M92.002,64.096L98.495,64.096L98.495,68.529L92.002,68.529L92.002,64.096ZM92.002,70.551L98.495,70.551L98.495,87.545L92.002,87.545L92.002,70.551Z" style="fill-rule:nonzero;"/>
        <path d="M120.357,80.662L107.291,80.662C107.41,81.714 107.693,82.497 108.145,83.013C108.776,83.753 109.6,84.123 110.62,84.123C111.263,84.123 111.872,83.963 112.45,83.642C112.804,83.439 113.184,83.08 113.593,82.569L120.007,83.152C119.027,84.858 117.843,86.082 116.454,86.823C115.065,87.563 113.075,87.933 110.481,87.933C108.227,87.933 106.458,87.616 105.167,86.981C103.874,86.347 102.804,85.338 101.954,83.957C101.108,82.574 100.683,80.948 100.683,79.082C100.683,76.425 101.533,74.273 103.234,72.629C104.935,70.985 107.283,70.164 110.281,70.164C112.713,70.164 114.633,70.532 116.041,71.269C117.447,72.005 118.52,73.072 119.256,74.469C119.99,75.87 120.36,77.687 120.36,79.928L120.36,80.662L120.357,80.662ZM113.746,77.552C113.617,76.286 113.277,75.38 112.728,74.832C112.173,74.286 111.451,74.013 110.55,74.013C109.511,74.013 108.683,74.426 108.062,75.251C107.666,75.766 107.414,76.534 107.306,77.552L113.746,77.552Z" style="fill-rule:nonzero;"/>
        <path d="M120.217,70.551L126.51,70.551L129.244,81.27L132.732,70.551L138.564,70.551L142.152,81.244L144.879,70.551L151.131,70.551L144.887,87.545L139.105,87.545L135.676,77.32L132.346,87.545L126.521,87.545L120.217,70.551Z" style="fill-rule:nonzero;"/>
        <path d="M152.125,64.096L158.619,64.096L158.619,68.529L152.125,68.529L152.125,64.096ZM152.125,70.551L158.619,70.551L158.619,87.545L152.125,87.545L152.125,70.551Z" style="fill-rule:nonzero;"/>
        <path d="M169.473,64.097L169.473,70.552L173.047,70.552L173.047,75.336L169.473,75.336L169.473,81.364C169.473,82.088 169.543,82.567 169.682,82.802C169.893,83.165 170.266,83.347 170.797,83.347C171.276,83.347 172.186,83.127 173.047,82.851L173.047,87.46C171.44,87.809 170.172,87.934 168.776,87.934C167.157,87.934 165.964,87.727 165.196,87.312C164.428,86.897 163.86,86.266 163.493,85.42C163.128,84.573 162.942,83.203 162.942,81.308L162.942,75.337L160.532,75.337L160.532,70.553L162.942,70.553L162.942,67.437L169.473,64.097Z" style="fill-rule:nonzero;"/>
    </g>
</svg>
